<mxfile host="app.diagrams.net" modified="2024-06-07T04:27:45.395Z" agent="Mozilla/5.0 (Windows NT 10.0; Win64; x64) AppleWebKit/537.36 (KHTML, like Gecko) Chrome/125.0.0.0 Safari/537.36 Edg/125.0.0.0" version="24.5.1" etag="eXzTnxKIf_lzqpNYmplT" type="github">
  <diagram name="第 1 页" id="Vpu8tAuTOzclm9F2Vw_t">
    <mxGraphModel>
      <root>
        <mxCell id="0" />
        <mxCell id="1" parent="0" />
      </root>
    </mxGraphModel>
  </diagram>
</mxfile>
